# xmcd
#
# Track frame offsets:
#	150
#	11904
#	21701
#	33133
#	44387
#	55375
#	64848
#	77969
#	88255
#	100269
#	111580
#	121606
#
# Disc length: 1776 seconds
#
# Revision: 1
# Processed by: cddbd v1.5.2PL0 Copyright (c) Steve Scherf et al.
# Submitted via: audiograbber 1.83.01
#
DISCID=a606ee0c
DTITLE=Hank Williams Jr. - Sings The Songs Of Hank Williams
DYEAR=1964
DGENRE=Country
TTITLE0=Long Gone Lonesome Blues
TTITLE1=Your Cheatin' Heart
TTITLE2=I'm So Lonesome I Could Cry
TTITLE3=I'm A Long Gone Daddy
TTITLE4=Cold, Cold Heart
TTITLE5=Hey Good Lookin'
TTITLE6=You Win Again
TTITLE7=Moanin' The Blues
TTITLE8=I Can't Help It
TTITLE9=There'll Be No Teardrops Tonight
TTITLE10=Jambalaya (On The Bayou)
TTITLE11=Mansion On The Hill
EXTD=
EXTT0=
EXTT1=
EXTT2=
EXTT3=
EXTT4=
EXTT5=
EXTT6=
EXTT7=
EXTT8=
EXTT9=
EXTT10=
EXTT11=
PLAYORDER=
